<mxfile host="app.diagrams.net" modified="2023-05-19T19:29:45.565Z" agent="Mozilla/5.0 (Macintosh; Intel Mac OS X 10_15_7) AppleWebKit/537.36 (KHTML, like Gecko) Chrome/113.0.0.0 Safari/537.36" version="21.3.2" etag="7Eu1FDy4l3X7-nHac3U7" type="github">
  <diagram name="PÃ¡gina-1" id="iuO6YyHTZ2ebLYQ9Q2Ed">
    <mxGraphModel>
      <root>
        <mxCell id="0" />
        <mxCell id="1" parent="0" />
      </root>
    </mxGraphModel>
  </diagram>
</mxfile>
